<svg width="647" height="647" viewBox="0 0 647 647" fill="none" xmlns="http://www.w3.org/2000/svg">
<path d="M491.922 7.07101L406.069 92.9247C402.163 96.8299 402.163 103.162 406.069 107.067L539.062 240.06C542.967 243.966 549.299 243.966 553.204 240.06L639.058 154.207C642.963 150.301 642.963 143.97 639.058 140.065L506.064 7.071C502.159 3.1658 495.827 3.1658 491.922 7.07101Z" fill="white"/>
<path d="M393.271 120.208C389.366 116.303 383.034 116.303 379.129 120.208L2.92893 496.408C1.05357 498.283 0 500.827 0 503.479V636.47C0 641.993 4.47715 646.47 10 646.47H143.008C145.66 646.47 148.204 645.417 150.079 643.541L580.483 213.137L540.404 253.202C536.499 257.106 530.168 257.105 526.263 253.2L393.271 120.208Z" fill="white"/>
</svg>
