<svg xmlns="http://www.w3.org/2000/svg" width="32" height="32" fill="none"><path fill="#fff" d="M29.333 16c0-7.347-5.986-13.333-13.333-13.333S2.667 8.653 2.667 16c0 3.867 1.666 7.347 4.306 9.787 0 .013 0 .013-.013.026.133.134.293.24.427.36.08.067.146.134.226.187.24.2.507.387.76.573.094.067.174.12.267.187.253.173.52.333.8.48.093.053.2.12.293.173.267.147.547.28.84.4.107.054.214.107.32.147.294.12.587.227.88.32.107.04.214.08.32.107.32.093.64.173.96.253.094.027.187.053.294.067.373.08.746.133 1.133.173a.67.67 0 0 1 .16.027c.453.04.907.066 1.36.066.453 0 .907-.026 1.347-.066.053 0 .106-.014.16-.027.386-.04.76-.093 1.133-.173.093-.014.187-.054.293-.067.32-.08.654-.147.96-.253.107-.04.214-.08.32-.107.294-.107.6-.2.88-.32.107-.04.214-.093.32-.147.28-.12.56-.253.84-.4.107-.053.2-.12.294-.173.266-.16.533-.307.8-.48.093-.053.173-.12.266-.187.267-.186.52-.373.76-.573.08-.067.147-.133.227-.187.147-.12.293-.24.427-.36 0-.013 0-.013-.014-.026 2.654-2.44 4.32-5.92 4.32-9.787Zm-6.746 6.627c-3.614-2.427-9.534-2.427-13.174 0a6.438 6.438 0 0 0-1.466 1.333A11.307 11.307 0 0 1 4.667 16C4.667 9.747 9.747 4.667 16 4.667S27.333 9.747 27.333 16c0 3.093-1.253 5.907-3.28 7.96a6.17 6.17 0 0 0-1.466-1.333Z"/><path fill="#fff" d="M16 9.24c-2.76 0-5 2.24-5 5 0 2.706 2.12 4.906 4.933 4.986h.24A4.99 4.99 0 0 0 21 14.24c0-2.76-2.24-5-5-5Z"/></svg>