<svg width="18" height="21" viewBox="0 0 18 21" fill="none" xmlns="http://www.w3.org/2000/svg">
<path fill-rule="evenodd" clip-rule="evenodd" d="M0.225708 2.27387C0.225708 1.50163 0.855337 0.875603 1.63201 0.875603H15.695C16.4717 0.875603 17.1013 1.50163 17.1013 2.27387V19.053C17.1013 19.5568 16.8288 20.0216 16.3879 20.2698C15.947 20.518 15.4059 20.5113 14.9715 20.252L8.66351 16.4889L2.35555 20.252C1.9211 20.5113 1.38001 20.518 0.939124 20.2698C0.498235 20.0216 0.225708 19.5568 0.225708 19.053V2.27387ZM3.03831 3.67213V16.5834L7.93997 13.6592C8.38534 13.3935 8.94168 13.3935 9.38705 13.6592L14.2887 16.5834V3.67213H3.03831Z" fill="white"/>
</svg>
