<svg width="30" height="30" viewBox="0 0 30 30" fill="none" xmlns="http://www.w3.org/2000/svg">
<g clip-path="url(#clip0_466_21)">
<path fill-rule="evenodd" clip-rule="evenodd" d="M26.8752 26.8801C25.9368 27.8161 24.4164 27.8161 23.4768 26.8801L14.9808 18.384L6.48481 26.8801C5.54641 27.8161 4.02481 27.8161 3.08641 26.8801C2.14801 25.9321 2.14801 24.4201 3.08641 23.4721L11.5824 14.976L3.08641 6.48005C2.14801 5.54405 2.14801 4.01996 3.08641 3.08396C4.02481 2.14796 5.54641 2.14796 6.48481 3.08396L14.9808 11.5801L23.4768 3.08396C24.4164 2.14796 25.9368 2.14796 26.8752 3.08396C27.8148 4.01996 27.8148 5.54405 26.8752 6.48005L18.3792 14.976L26.8752 23.4721C27.8148 24.4201 27.8148 25.9321 26.8752 26.8801ZM21.7776 14.976L28.5756 8.18396C30.4512 6.31196 30.4512 3.26407 28.5756 1.39207C26.6976 -0.491935 23.6544 -0.491935 21.7776 1.39207L14.9808 8.18396L8.18403 1.39207C6.30843 -0.491935 3.26523 -0.491935 1.38723 1.39207C-0.48837 3.26407 -0.48837 6.31196 1.38723 8.18396L8.18403 14.976L1.38723 21.7801C-0.48837 23.6521 -0.48837 26.7001 1.38723 28.5721C3.26523 30.4561 6.30843 30.4561 8.18403 28.5721L14.9808 21.7801L21.7776 28.5721C23.6544 30.4561 26.6976 30.4561 28.5756 28.5721C30.4512 26.7001 30.4512 23.6521 28.5756 21.7801L21.7776 14.976Z" fill="white"/>
</g>
<defs>
<clipPath id="clip0_466_21">
<rect width="30" height="30" fill="white"/>
</clipPath>
</defs>
</svg>
