<svg width="37" height="31" viewBox="0 0 37 31" fill="none" xmlns="http://www.w3.org/2000/svg">
<path fill-rule="evenodd" clip-rule="evenodd" d="M33.9475 6.52612C33.9475 6.52612 14.2183 26.6393 13.9083 26.9632C12.9853 27.9 11.491 27.9 10.5681 26.9632C10.5681 26.9632 3.00627 19.2486 2.98314 19.2255C2.13188 18.2771 2.15506 16.8082 3.05373 15.8829C3.97553 14.9461 5.47101 14.9461 6.39397 15.8829L12.237 21.851L30.6072 3.11423C31.529 2.17739 33.0245 2.17739 33.9475 3.11423C34.8693 4.05107 34.8693 5.57772 33.9475 6.52612ZM35.6164 1.41393C33.7717 -0.471312 30.7818 -0.471312 28.9371 1.41393L12.237 18.4391L8.06292 14.1828C6.21816 12.3091 3.22718 12.3091 1.38357 14.1828C-0.461191 16.068 -0.461191 19.1214 1.38357 20.9951L8.89797 28.6633C10.7427 30.5486 13.7325 30.5486 15.5772 28.6633L35.6164 8.22628C37.4612 6.34104 37.4612 3.28761 35.6164 1.41393Z" fill="white"/>
</svg>
