<svg width="45" height="45" viewBox="0 0 45 45" fill="none" xmlns="http://www.w3.org/2000/svg">
<path fill-rule="evenodd" clip-rule="evenodd" d="M30.4736 1.41781C31.3817 0.509986 32.6132 0 33.8973 0C35.1813 0 36.4128 0.509986 37.3209 1.41781L43.5822 7.67912C44.49 8.58721 45 9.81869 45 11.1027C45 12.3868 44.49 13.6183 43.5822 14.5264L39.7421 18.3664L26.6336 5.25788L30.4736 1.41781ZM23.2099 8.68151L1.41884 30.4726C0.510641 31.3805 0.000274265 32.612 0 33.8962V40.1575C0 41.4418 0.510187 42.6735 1.41833 43.5817C2.32646 44.4898 3.55816 45 4.84247 45H11.1038C12.388 44.9997 13.6195 44.4894 14.5274 43.5812L36.3185 21.7901L23.2099 8.68151Z" fill="#7D0000"/>
<path d="M0 39H6V45H0V39Z" fill="#7D0000"/>
</svg>
