<svg width="15" height="15" viewBox="0 0 15 15" fill="none" xmlns="http://www.w3.org/2000/svg">
<path d="M0.415084 0.415074C-0.138361 0.96852 -0.138361 1.86581 0.415084 2.41926L5.49582 7.49997L0.415084 12.5808C-0.138361 13.1342 -0.138361 14.0315 0.415084 14.5849C0.968515 15.1383 1.86582 15.1383 2.41925 14.5849L7.49997 9.50412L12.5808 14.5849C13.1342 15.1383 14.0315 15.1383 14.5849 14.5849C15.1384 14.0315 15.1384 13.1342 14.5849 12.5808L9.50413 7.49997L14.5849 2.41927C15.1384 1.86584 15.1384 0.968534 14.5849 0.415102C14.0314 -0.138344 13.1342 -0.138344 12.5808 0.415102L7.49997 5.49581L2.41925 0.415074C1.86582 -0.138358 0.968515 -0.138358 0.415084 0.415074Z" fill="#BEBEBE"/>
</svg>
