<?xml version="1.0" encoding="utf-8"?><!-- Uploaded to: SVG Repo, www.svgrepo.com, Generator: SVG Repo Mixer Tools -->
<svg width="800px" height="800px" viewBox="0 0 26 26" xmlns="http://www.w3.org/2000/svg">
  <g id="Group_718" data-name="Group 718" transform="translate(-50.5 -150.5)">
    <path id="Path_1496" data-name="Path 1496" d="M74.5,176.5h-5v-2h3.9l-6.9-6,1-2,7,6.1v-3.1h2v5A2.006,2.006,0,0,1,74.5,176.5Zm0-22.1-7,6.1-1-2,6.9-6H69.5v-2h5a2.006,2.006,0,0,1,2,2v5h-2Zm-17,20.1v2h-5a2.006,2.006,0,0,1-2-2v-5h2v3.1l7-6.1,1,2-6.9,6Zm2-14-7-6.1v3.1h-2v-5a2.006,2.006,0,0,1,2-2h5v2H53.6l6.9,6Z" fill="#444"/>
  </g>
</svg>